<?xml version="1.0" encoding="UTF-8"?>
<!DOCTYPE svg PUBLIC "-//W3C//DTD SVG 1.1//EN" "http://www.w3.org/Graphics/SVG/1.1/DTD/svg11.dtd">
<!-- Creator: CorelDRAW 2021 (64-Bit) -->
<svg xmlns="http://www.w3.org/2000/svg" version="1.1" style="shape-rendering:geometricPrecision; text-rendering:geometricPrecision; image-rendering:optimizeQuality; fill-rule:evenodd; clip-rule:evenodd"
viewBox="0 0 528.94 528.94">
 <defs>
  <style type="text/css">
   <![CDATA[
    .fil0 {fill:#2A60E4}
    .fil1 {fill:#5580E9;fill-rule:nonzero}
    .fil2 {fill:white;fill-rule:nonzero}
   ]]>
  </style>
 </defs>
 <g id="Capa_x0020_1">
  <metadata id="CorelCorpID_0Corel-Layer"/>
  <rect class="fil0" width="528.94" height="528.94" rx="150.77" ry="150.77"/>
  <path class="fil1" d="M210.52 383.49l54.75 54.37c18.85,18.75 49.31,18.69 68.1,-0.09l0.09 0.09 195.48 -195.48 0 -91.61c0,-11.44 -1.3,-22.59 -3.74,-33.32l-314.68 266.04z"/>
  <path class="fil2" d="M120.75 294.33c-18.88,-18.77 -18.97,-49.3 -0.19,-68.18 18.78,-18.88 49.31,-18.97 68.19,-0.19l55.54 55.16 234.9 -234.89c1.24,-1.25 2.54,-2.4 3.88,-3.49 24.5,23.8 40.99,55.79 44.94,91.42l-249.31 249.32 -0.1 -0.1c-18.78,18.79 -49.24,18.84 -68.09,0.1l-89.76 -89.15z"/>
 </g>
</svg>
